<svg version="1.0" xmlns="http://www.w3.org/2000/svg" width="1rm" height="1em" viewBox="0 0 256.0 256.0"
preserveAspectRatio="xMidYMid meet">
<style>
  g {
    --c000000:#cf6bca;
  }
  @media (prefers-color-scheme: dark) {
    g { --c000000:#e8f49d; }
  }
</style>
  <g transform="translate(0.0,256.0) scale(0.1,-0.1)" fill="var(--c000000)" stroke="none">
    <path d="M375 2544 c-58 -20 -106 -64 -140 -125 l-30 -54 0 -1085 0 -1085 30 -54 c35 -63 82 -105 144 -126 67 -23 1735 -23 1802 0 62 21 109 63 144 126 l30 54 0 1085 0 1085 -30 54 c-35 63 -82 105 -144 126 -65 22 -1744 21 -1806 -1z m1802 -110 c15 -11 38 -36 51 -54 l22 -33 0 -1067 0 -1067 -22 -33 c-13 -18 -36 -43 -51 -54 -28 -21 -31 -21 -897 -21 -866 0 -869 0 -897 21 -15 11 -38 36 -51 54 l-22 33 0 1064 c0 1150 -3 1089 53 1141 13 13 37 27 53 32 16 5 412 8 881 7 847 -2 852 -2 880 -23z" />
    <path d="M925 2227 c-102 -58 -114 -210 -24 -303 l29 -30 -52 -25 c-91 -42 -162 -120 -181 -200 -13 -53 65 -86 223 -96 l95 -6 -42 45 c-24 24 -43 48 -43 54 0 5 15 46 34 90 24 58 31 85 24 97 -8 15 -4 17 28 17 31 0 35 -2 24 -15 -10 -13 -6 -31 25 -106 l37 -91 -43 -44 -43 -44 54 0 c76 1 206 25 236 45 67 43 -23 193 -152 252 l-56 25 25 27 c43 46 61 92 62 158 0 54 -4 66 -31 100 -59 74 -151 94 -229 50z" />
    <path d="M705 1416 c-13 -19 -14 -29 -5 -45 11 -21 15 -21 580 -21 565 0 569 0 580 21 9 16 8 26 -5 45 l-15 24 -560 0 -560 0 -15 -24z" />
    <path d="M710 1210 c-11 -11 -20 -24 -20 -30 0 -5 9 -19 20 -30 20 -20 33 -20 570 -20 537 0 550 0 570 20 11 11 20 25 20 30 0 5 -9 19 -20 30 -20 20 -33 20 -570 20 -537 0 -550 0 -570 -20z" />
    <path d="M706 989 c-15 -22 -11 -48 8 -61 16 -11 1118 -9 1135 1 7 5 14 21 14 36 0 15 -7 31 -14 36 -8 5 -265 9 -571 9 -556 0 -557 0 -572 -21z" />
    <path d="M1250 780 c-11 -11 -20 -24 -20 -30 0 -5 9 -19 20 -30 19 -19 33 -20 300 -20 267 0 281 1 300 20 11 11 20 25 20 30 0 6 -9 19 -20 30 -19 19 -33 20 -300 20 -267 0 -281 -1 -300 -20z" />
    <path d="M1412 358 c-7 -7 -12 -21 -12 -33 0 -42 14 -45 232 -45 l208 0 15 24 c13 19 14 29 5 45 -10 20 -19 21 -223 21 -152 0 -216 -3 -225 -12z" />
  </g>
</svg>
